grf
inDegrees=no
nColumns=19
nRows=168
DataType=double
version=3
OpenSimVersion=4.3-2021-08-27-4bc7ad9
endheader
time	ground_force_r_vx	ground_force_r_vy	ground_force_r_vz	ground_force_r_px	ground_force_r_py	ground_force_r_pz	ground_torque_r_x	ground_torque_r_y	ground_torque_r_z	ground_force_l_vx	ground_force_l_vy	ground_force_l_vz	ground_force_l_px	ground_force_l_py	ground_force_l_pz	ground_torque_l_x	ground_torque_l_y	ground_torque_l_z
0.972	0	0	0	0	0	0	0	0	0	0	0	0	0	0	0	0	0	0
0.973	0	0	0	0	0	0	0	0	0	0	0	0	0	0	0	0	0	0
0.974	0	0	0	0	0	0	0	0	0	0	0	0	0	0	0	0	0	0
0.975	0	0	0	0	0	0	0	0	0	0	0	0	0	0	0	0	0	0
0.976	0	0	0	0	0	0	0	0	0	0	0	0	0	0	0	0	0	0
0.977	0	0	0	0	0	0	0	0	0	0	0	0	0	0	0	0	0	0
0.978	0	0	0	0	0	0	0	0	0	0	0	0	0	0	0	0	0	0
0.979	0	0	0	0	0	0	0	0	0	0	0	0	0	0	0	0	0	0
0.98	0	0	0	0	0	0	0	0	0	0	0	0	0	0	0	0	0	0
0.981	0	0	0	0	0	0	0	0	0	0	0	0	0	0	0	0	0	0
0.982	0	0	0	0	0	0	0	0	0	0	0	0	0	0	0	0	0	0
0.983	0	0	0	0	0	0	0	0	0	0	0	0	0	0	0	0	0	0
0.984	0	0	0	0	0	0	0	0	0	0	0	0	0	0	0	0	0	0
0.985	0	0	0	0	0	0	0	0	0	0	0	0	0	0	0	0	0	0
0.986	0	0	0	0	0	0	0	0	0	0	0	0	0	0	0	0	0	0
0.987	0	0	0	0	0	0	0	0	0	0	0	0	0	0	0	0	0	0
0.988	0	0	0	0	0	0	0	0	0	0	0	0	0	0	0	0	0	0
0.989	0	0	0	0	0	0	0	0	0	0	0	0	0	0	0	0	0	0
0.99	0	0	0	0	0	0	0	0	0	0	0	0	0	0	0	0	0	0
0.991	0	0	0	0	0	0	0	0	0	0	0	0	0	0	0	0	0	0
0.992	0	0	0	0	0	0	0	0	0	0	0	0	0	0	0	0	0	0
0.993	0	0	0	0	0	0	0	0	0	0	0	0	0	0	0	0	0	0
0.994	0	0	0	0	0	0	0	0	0	0	0	0	0	0	0	0	0	0
0.995	0	0	0	0	0	0	0	0	0	0	0	0	0	0	0	0	0	0
0.996	0	0	0	0	0	0	0	0	0	0	0	0	0	0	0	0	0	0
0.997	0	0	0	0	0	0	0	0	0	0	0	0	0	0	0	0	0	0
0.998	0	0	0	0	0	0	0	0	0	0	0	0	0	0	0	0	0	0
0.999	0	0	0	0	0	0	0	0	0	0	0	0	0	0	0	0	0	0
1	0	0	0	0	0	0	0	0	0	0	0	0	0	0	0	0	0	0
1.001	0	0	0	0	0	0	0	0	0	0	0	0	0	0	0	0	0	0
1.002	0	0	0	0	0	0	0	0	0	0	0	0	0	0	0	0	0	0
1.003	0	0	0	0	0	0	0	0	0	0	0	0	0	0	0	0	0	0
1.004	0	0	0	0	0	0	0	0	0	0	0	0	0	0	0	0	0	0
1.005	0	0	0	0	0	0	0	0	0	0	0	0	0	0	0	0	0	0
1.006	0	0	0	0	0	0	0	0	0	0	0	0	0	0	0	0	0	0
1.007	0	0	0	0	0	0	0	0	0	0	0	0	0	0	0	0	0	0
1.008	0	0	0	0	0	0	0	0	0	0	0	0	0	0	0	0	0	0
1.009	0	0	0	0	0	0	0	0	0	0	0	0	0	0	0	0	0	0
1.01	0	0	0	0	0	0	0	0	0	0	0	0	0	0	0	0	0	0
1.011	0	0	0	0	0	0	0	0	0	0	0	0	0	0	0	0	0	0
1.012	0	0	0	0	0	0	0	0	0	0	0	0	0	0	0	0	0	0
1.013	0	0	0	0	0	0	0	0	0	0	0	0	0	0	0	0	0	0
1.014	0	0	0	0	0	0	0	0	0	0	0	0	0	0	0	0	0	0
1.015	0	0	0	0	0	0	0	0	0	0	0	0	0	0	0	0	0	0
1.016	0	0	0	0	0	0	0	0	0	0	0	0	0	0	0	0	0	0
1.017	0	0	0	0	0	0	0	0	0	0	0	0	0	0	0	0	0	0
1.018	0	0	0	0	0	0	0	0	0	0	0	0	0	0	0	0	0	0
1.019	0	0	0	0	0	0	0	0	0	0	0	0	0	0	0	0	0	0
1.02	0	0	0	0	0	0	0	0	0	0	0	0	0	0	0	0	0	0
1.021	0	0	0	0	0	0	0	0	0	0	0	0	0	0	0	0	0	0
1.022	0	0	0	0	0	0	0	0	0	0	0	0	0	0	0	0	0	0
1.023	0	0	0	0	0	0	0	0	0	0	0	0	0	0	0	0	0	0
1.024	0	0	0	0	0	0	0	0	0	0	0	0	0	0	0	0	0	0
1.025	0	0	0	0	0	0	0	0	0	0	0	0	0	0	0	0	0	0
1.026	0	0	0	0	0	0	0	0	0	0	0	0	0	0	0	0	0	0
1.027	0	0	0	0	0	0	0	0	0	0	0	0	0	0	0	0	0	0
1.028	0	0	0	0	0	0	0	0	0	0	0	0	0	0	0	0	0	0
1.029	0	0	0	0	0	0	0	0	0	0	0	0	0	0	0	0	0	0
1.03	0	0	0	0	0	0	0	0	0	0	0	0	0	0	0	0	0	0
1.031	0	0	0	0	0	0	0	0	0	0	0	0	0	0	0	0	0	0
1.032	0	0	0	0	0	0	0	0	0	0	0	0	0	0	0	0	0	0
1.033	0	0	0	0	0	0	0	0	0	0	0	0	0	0	0	0	0	0
1.034	0	0	0	0	0	0	0	0	0	0	0	0	0	0	0	0	0	0
1.035	0	0	0	0	0	0	0	0	0	0	0	0	0	0	0	0	0	0
1.036	0	0	0	0	0	0	0	0	0	0	0	0	0	0	0	0	0	0
1.037	0	0	0	0	0	0	0	0	0	0	0	0	0	0	0	0	0	0
1.038	0	0	0	0	0	0	0	0	0	0	0	0	0	0	0	0	0	0
1.039	0	0	0	0	0	0	0	0	0	0	0	0	0	0	0	0	0	0
1.04	0	0	0	0	0	0	0	0	0	0	0	0	0	0	0	0	0	0
1.041	0	0	0	0	0	0	0	0	0	0	0	0	0	0	0	0	0	0
1.042	0	0	0	0	0	0	0	0	0	0	0	0	0	0	0	0	0	0
1.043	0	0	0	0	0	0	0	0	0	-5.86792392	15.15236192	0	2.84539521	0	0	-0.02130621	0.15072241	0
1.044	0	0	0	0	0	0	0	0	0	-14.89403128	33.7837533	0	4.10738304	0	0	-0.04875247	0.29698255	0
1.045	0	0	0	0	0	0	0	0	0	-26.63781291	53.91760281	0	4.12831916	0	0	-0.0742657	0.39604705	0
1.046	0	0	0	0	0	0	0	0	0	-43.12404478	80.96057578999999	0	4.15104945	0	0	-0.09895708	0.48080557	0
1.047	0	0	0	0	0	0	0	0	0	-65.37018157	116.97782312	0	4.17418611	0	0	-0.12329698	0.54710845	0
1.048	0	0	0	0	0	0	0	0	0	-93.99028859000001	163.33603982	0	4.19624346	0	0	-0.1564465	0.60890765	0
1.049	0	0	0	0	0	0	0	0	0	-130.14913759	221.97340637	0	4.21593004	0	0	-0.21764507	0.69644976	0
1.05	0	0	0	0	0	0	0	0	0	-173.87003297	292.90203817	0	4.23241742	0	0	-0.33094838	0.85231791	0
1.051	0	0	0	0	0	0	0	0	0	-225.23503817	376.54792478	0	4.24495304	0	0	-0.52590107	1.13078933	0
1.052	0	0	0	0	0	0	0	0	0	-282.69101241	471.27469452	0	4.25352203	0	0	-0.82257819	1.5791354	0
1.053	0	0	0	0	0	0	0	0	0	-344.66780193	576.26509026	0	4.25802016	0	0	-1.24149557	2.25310417	0
1.054	0	0	0	0	0	0	0	0	0	-408.2185065	689.20922445	0	4.25905403	0	0	-1.77283156	3.16514931	0
1.055	0	0	0	0	0	0	0	0	0	-469.99625756	808.48061588	0	4.25700663	0	0	-2.39371681	4.31116996	0
1.056	0	0	0	0	0	0	0	0	0	-526.05541285	931.15128201	0	4.25275591	0	0	-3.04398893	5.6062703	0
1.057	0	0	0	0	0	0	0	0	0	-571.86213499	1054.42716732	0	4.24691606	0	0	-3.65480496	6.9404965	0
1.058	0	0	0	0	0	0	0	0	0	-604.03710898	1175.03815378	0	4.24030212	0	0	-4.15708151	8.171892140000001	0
1.059	0	0	0	0	0	0	0	0	0	-618.60933869	1289.71370446	0	4.23350984	0	0	-4.48737543	9.16729205	0
1.06	0	0	0	0	0	0	0	0	0	-614.65532959	1396.0619368	0	4.22708897	0	0	-4.6204117	9.847533049999999	0
1.061	0	0	0	0	0	0	0	0	0	-590.70808952	1491.5091466	0	4.22146939	0	0	-4.53446476	10.14937408	0
1.062	0	0	0	0	0	0	0	0	0	-549.30663606	1575.47605735	0	4.21688304	0	0	-4.25606099	10.10048619	0
1.063	0	0	0	0	0	0	0	0	0	-492.26777667	1647.00049995	0	4.21354525	0	0	-3.8056025	9.72362423	0
1.064	0	0	0	0	0	0	0	0	0	-424.65622846	1707.52295355	0	4.21142434	0	0	-3.23839377	9.102196340000001	0
1.065	0	0	0	0	0	0	0	0	0	-350.66033101	1757.80773203	0	4.21055387	0	0	-2.5973268	8.281335889999999	0
1.066	0	0	0	0	0	0	0	0	0	-275.83587421	1800.4610654	0	4.2107478	0	0	-1.93652369	7.31454841	0
1.067	0	0	0	0	0	0	0	0	0	-205.10285952	1837.12988698	0	4.2119248	0	0	-1.29736723	6.20378764	0
1.068	0	0	0	0	0	0	0	0	0	-142.60598744	1870.21661914	0	4.21384935	0	0	-0.7106438899999999	4.94357228	0
1.069	0	0	0	0	0	0	0	0	0	-92.36822101	1901.15577158	0	4.21639292	0	0	-0.19919392	3.49427219	0
1.07	0	0	0	0	0	0	0	0	0	-55.9466539	1931.31831312	0	4.21934431	0	0	0.23459334	1.84040691	0
1.071	0	0	0	0	0	0	0	0	0	-35.39118787	1961.35927142	0	4.22258111	0	0	0.58869545	-0.04404759	0
1.072	0	0	0	0	0	0	0	0	0	-29.5971307	1991.454852	0	4.22596297	0	0	0.87889466	-2.12999577	0
1.073	0	0	0	0	0	0	0	0	0	-38.50603079	2021.24476484	0	4.2294113	0	0	1.11552187	-4.38631014	0
1.074	0	0	0	0	0	0	0	0	0	-59.26903361	2049.97985202	0	4.23286338	0	0	1.31817473	-6.72965404	0
1.075	0	0	0	0	0	0	0	0	0	-90.30532199	2076.55160906	0	4.2362891	0	0	1.49959778	-9.076886719999999	0
1.076	0	0	0	0	0	0	0	0	0	-128.16264833	2100.00907355	0	4.23968093	0	0	1.67377647	-11.33504429	0
1.077	0	0	0	0	0	0	0	0	0	-170.42290803	2119.11086486	0	4.24304078	0	0	1.84884705	-13.41194737	0
1.078	0	0	0	0	0	0	0	0	0	-213.91789809	2133.36444552	0	4.24638006	0	0	2.02869121	-15.24896912	0
1.079	0	0	0	0	0	0	0	0	0	-256.08410092	2141.91373249	0	4.24970581	0	0	2.21257323	-16.77382803	0
1.08	0	0	0	0	0	0	0	0	0	-294.76618094	2145.03256337	0	4.25302205	0	0	2.39511281	-17.97349259	0
1.081	0	0	0	0	0	0	0	0	0	-327.94991199	2142.57101937	0	4.25632243	0	0	2.56814456	-18.80775922	0
1.082	0	0	0	0	0	0	0	0	0	-354.8360837	2135.54379799	0	4.25959255	0	0	2.72230805	-19.30241026	0
1.083	0	0	0	0	0	0	0	0	0	-374.27110437	2124.51984569	0	4.26280454	0	0	2.84466018	-19.44070594	0
1.084	0	0	0	0	0	0	0	0	0	-386.60357192	2110.89375549	0	4.26593061	0	0	2.92615161	-19.26476005	0
1.085	0	0	0	0	0	0	0	0	0	-391.45843117	2095.64738078	0	4.26892671	0	0	2.95358351	-18.7724202	0
1.086	0	0	0	0	0	0	0	0	0	-389.8390848	2080.03942103	0	4.27176256	0	0	2.92417385	-18.01757156	0
1.087	0	0	0	0	0	0	0	0	0	-381.84795657	2065.06179678	0	4.274386	0	0	2.83064738	-17.01865555	0
1.088	0	0	0	0	0	0	0	0	0	-368.67458862	2051.47477627	0	4.27678094	0	0	2.67968644	-15.84122782	0
1.089	0	0	0	0	0	0	0	0	0	-350.65081045	2039.97973532	0	4.27890657	0	0	2.47287193	-14.52388648	0
1.09	0	0	0	0	0	0	0	0	0	-328.90765067	2030.78224109	0	4.28077429	0	0	2.22410394	-13.12981632	0
1.091	0	0	0	0	0	0	0	0	0	-303.90547396	2024.26157918	0	4.2823653	0	0	1.94216827	-11.70174	0
1.092	0	0	0	0	0	0	0	0	0	-276.66496202	2020.25657671	0	4.28371258	0	0	1.64311644	-10.28532925	0
1.093	0	0	0	0	0	0	0	0	0	-247.78636651	2018.90928719	0	4.28481352	0	0	1.33955912	-8.919101189999999	0
1.094	0	0	0	0	0	0	0	0	0	-218.17495449	2019.82414714	0	4.28571203	0	0	1.04489988	-7.62772749	0
1.095	0	0	0	0	0	0	0	0	0	-188.51594309	2022.90742455	0	4.28642112	0	0	0.77144586	-6.43506665	0
1.096	0	0	0	0	0	0	0	0	0	-159.4567265	2027.62718784	0	4.28698922	0	0	0.52643177	-5.33608789	0
1.097	0	0	0	0	0	0	0	0	0	-131.56646656	2033.70756199	0	4.28743838	0	0	0.31873511	-4.32820159	0
1.098	0	0	0	0	0	0	0	0	0	-105.08987125	2040.59876206	0	4.2878091	0	0	0.14892759	-3.38569359	0
1.099	0	0	0	0	0	0	0	0	0	-80.31832226	2047.91808781	0	4.28812051	0	0	0.02159044	-2.49444953	0
1.1	0	0	0	0	0	0	0	0	0	-57.110073	2055.19078343	0	4.28839835	0	0	-0.0677939	-1.6360728	0
1.101	0	0	0	0	0	0	0	0	0	-35.46776948	2061.98642663	0	4.28865525	0	0	-0.11873128	-0.8094493	0
1.102	0	0	0	0	0	0	0	0	0	-15.03297347	2067.97044296	0	4.28890391	0	0	-0.13883196	-0.017915	0
1.103	0	0	0	0	0	0	0	0	0	4.36946159	2072.7382049	0	4.28915167	0	0	-0.1307681	0.72153532	0
1.104	0	0	0	0	0	0	0	0	0	23.12303425	2076.13605153	0	4.28940427	0	0	-0.10284182	1.39688476	0
1.105	0	0	0	0	0	0	0	0	0	41.45069536	2077.85378479	0	4.289664	0	0	-0.05927028	1.98562588	0
1.106	0	0	0	0	0	0	0	0	0	59.61798735	2077.9480146	0	4.28992706	0	0	-0.0067351	2.485269	0
1.107	0	0	0	0	0	0	0	0	0	77.78028734	2076.24048555	0	4.29018744	0	0	0.05140585	2.88783849	0
1.108	0	0	0	0	0	0	0	0	0	96.04778413	2072.89745247	0	4.29044019	0	0	0.11220157	3.21465976	0
1.109	0	0	0	0	0	0	0	0	0	114.4973696	2067.77399521	0	4.2906813	0	0	0.17511747	3.48188138	0
1.11	0	0	0	0	0	0	0	0	0	133.14790983	2061.0395328	0	4.29091081	0	0	0.24032941	3.72107006	0
1.111	0	0	0	0	0	0	0	0	0	152.03977989	2052.53129198	0	4.2911296	0	0	0.30893701	3.95323549	0
1.112	0	0	0	0	0	0	0	0	0	171.16710755	2042.38214522	0	4.29134498	0	0	0.38131115	4.19410401	0
1.113	0	0	0	0	0	0	0	0	0	190.56773578	2030.36525231	0	4.2915681	0	0	0.45809307	4.4505133	0
1.114	0	0	0	0	0	0	0	0	0	210.2219953	2016.57092012	0	4.29180992	0	0	0.53858628	4.71863849	0
1.115	0	0	0	0	0	0	0	0	0	230.14693593	2000.72609782	0	4.29208057	0	0	0.62223177	4.9899766	0
1.116	0	0	0	0	0	0	0	0	0	250.29113241	1982.94226153	0	4.29238027	0	0	0.70752637	5.25159518	0
1.117	0	0	0	0	0	0	0	0	0	270.62541538	1962.95744135	0	4.29270798	0	0	0.79337622	5.4891116	0
1.118	0	0	0	0	0	0	0	0	0	291.0620885	1940.94959342	0	4.29304973	0	0	0.87887607	5.69457313	0
1.119	0	0	0	0	0	0	0	0	0	311.52965039	1916.70010003	0	4.2933917	0	0	0.96416693	5.86004461	0
1.12	0	0	0	0	0	0	0	0	0	331.94621908	1890.42717261	0	4.29372253	0	0	1.05080166	5.99202307	0
1.121	0	0	0	0	0	0	0	0	0	352.22402968	1861.9268672	0	4.29403465	0	0	1.14191912	6.09662729	0
1.122	0	0	0	0	0	0	0	0	0	372.28934949	1831.43169129	0	4.29432905	0	0	1.24049235	6.18906602	0
1.123	0	0	0	0	0	0	0	0	0	392.01219552	1798.74703907	0	4.29460953	0	0	1.35007851	6.27957443	0
1.124	0	0	0	0	0	0	0	0	0	411.30579223	1764.11475443	0	4.29488841	0	0	1.47035215	6.37406342	0
1.125	0	0	0	0	0	0	0	0	0	429.97629123	1727.3606766	0	4.2951796	0	0	1.60104338	6.47243354	0
1.126	0	0	0	0	0	0	0	0	0	447.93076842	1688.75689818	0	4.29549313	0	0	1.73828719	6.56956433	0
1.127	0	0	0	0	0	0	0	0	0	464.91935662	1648.1920078	0	4.29583878	0	0	1.87954513	6.65918217	0
1.128	0	0	0	0	0	0	0	0	0	480.88044582	1605.96909566	0	4.29621895	0	0	2.02233896	6.73843816	0
1.129	0	0	0	0	0	0	0	0	0	495.54183778	1562.02582302	0	4.29664172	0	0	2.16603744	6.8054536	0
1.13	0	0	0	0	0	0	0	0	0	508.90698108	1516.674023	0	4.29710197	0	0	2.31050661	6.86232317	0
1.131	0	0	0	0	0	0	0	0	0	520.72835185	1469.90423403	0	4.29759845	0	0	2.45606269	6.90905593	0
1.132	0	0	0	0	0	0	0	0	0	531.10984407	1421.99084484	0	4.29811928	0	0	2.60226344	6.94628679	0
1.133	0	0	0	0	0	0	0	0	0	539.86041762	1372.90038067	0	4.29865456	0	0	2.74777338	6.97001944	0
1.134	0	0	0	0	0	0	0	0	0	547.13761884	1322.80957996	0	4.29918689	0	0	2.88995995	6.97635509	0
1.135	0	0	0	0	0	0	0	0	0	552.75271406	1271.60983954	0	4.29970182	0	0	3.02405061	6.95516864	0
1.136	0	0	0	0	0	0	0	0	0	556.86033019	1219.3966152	0	4.30019736	0	0	3.14603041	6.90098584	0
1.137	0	0	0	0	0	0	0	0	0	559.24428923	1166.02139806	0	4.30068118	0	0	3.24919375	6.80183439	0
1.138	0	0	0	0	0	0	0	0	0	560.0440088	1111.6099328	0	4.30117566	0	0	3.33105538	6.65684624	0
1.139	0	0	0	0	0	0	0	0	0	559.02355005	1056.09587589	0	4.30171408	0	0	3.38514187	6.45728034	0
